<mxfile host="app.diagrams.net" modified="2023-04-18T21:09:09.935Z" agent="Mozilla/5.0 (X11; Ubuntu; Linux x86_64; rv:109.0) Gecko/20100101 Firefox/112.0" etag="h93vYxeEbTXAf3JXlbK-" version="21.1.6" type="github">
  <diagram name="Page-1" id="P7CR7DDU6gDcckSHtJkA">
    <mxGraphModel dx="1605" dy="5540" grid="1" gridSize="10" guides="1" tooltips="1" connect="1" arrows="1" fold="1" page="1" pageScale="1" pageWidth="3300" pageHeight="4681" math="0" shadow="0">
      <root>
        <mxCell id="0" />
        <mxCell id="1" parent="0" />
        <mxCell id="6n4t6WayjrzzWqq2-2He-1" value="Владелец телефона" style="shape=umlActor;verticalLabelPosition=bottom;verticalAlign=top;html=1;outlineConnect=0;fillColor=#d5e8d4;strokeColor=#82b366;" parent="1" vertex="1">
          <mxGeometry x="190" y="270" width="40" height="80" as="geometry" />
        </mxCell>
        <mxCell id="6n4t6WayjrzzWqq2-2He-2" value="" style="endArrow=classic;html=1;rounded=0;entryX=0;entryY=0.5;entryDx=0;entryDy=0;" parent="1" target="6n4t6WayjrzzWqq2-2He-3" edge="1">
          <mxGeometry width="50" height="50" relative="1" as="geometry">
            <mxPoint x="240" y="280" as="sourcePoint" />
            <mxPoint x="330" y="130" as="targetPoint" />
          </mxGeometry>
        </mxCell>
        <mxCell id="6n4t6WayjrzzWqq2-2He-3" value="Совершить звонок" style="ellipse;whiteSpace=wrap;html=1;fillColor=#d5e8d4;strokeColor=#82b366;" parent="1" vertex="1">
          <mxGeometry x="460" y="-20" width="120" height="80" as="geometry" />
        </mxCell>
        <mxCell id="6n4t6WayjrzzWqq2-2He-4" value="" style="endArrow=classic;html=1;rounded=0;entryX=0;entryY=0.5;entryDx=0;entryDy=0;" parent="1" target="6n4t6WayjrzzWqq2-2He-5" edge="1">
          <mxGeometry width="50" height="50" relative="1" as="geometry">
            <mxPoint x="240" y="280" as="sourcePoint" />
            <mxPoint x="390" y="230" as="targetPoint" />
          </mxGeometry>
        </mxCell>
        <mxCell id="6n4t6WayjrzzWqq2-2He-5" value="Отправить сообещние" style="ellipse;whiteSpace=wrap;html=1;fillColor=#d5e8d4;strokeColor=#82b366;" parent="1" vertex="1">
          <mxGeometry x="470" y="120" width="120" height="80" as="geometry" />
        </mxCell>
        <mxCell id="6n4t6WayjrzzWqq2-2He-6" value="Приобрести номер телефона" style="ellipse;whiteSpace=wrap;html=1;fillColor=#d5e8d4;strokeColor=#82b366;" parent="1" vertex="1">
          <mxGeometry x="450" y="285" width="140" height="90" as="geometry" />
        </mxCell>
        <mxCell id="6n4t6WayjrzzWqq2-2He-7" value="" style="endArrow=classic;html=1;rounded=0;entryX=0;entryY=0.5;entryDx=0;entryDy=0;" parent="1" target="6n4t6WayjrzzWqq2-2He-6" edge="1">
          <mxGeometry width="50" height="50" relative="1" as="geometry">
            <mxPoint x="240" y="280" as="sourcePoint" />
            <mxPoint x="530" y="150" as="targetPoint" />
          </mxGeometry>
        </mxCell>
        <mxCell id="6n4t6WayjrzzWqq2-2He-8" value="Использование интернета" style="ellipse;whiteSpace=wrap;html=1;fillColor=#d5e8d4;strokeColor=#82b366;" parent="1" vertex="1">
          <mxGeometry x="465" y="420" width="110" height="80" as="geometry" />
        </mxCell>
        <mxCell id="6n4t6WayjrzzWqq2-2He-9" value="" style="endArrow=classic;html=1;rounded=0;entryX=0;entryY=0.5;entryDx=0;entryDy=0;" parent="1" target="6n4t6WayjrzzWqq2-2He-8" edge="1">
          <mxGeometry width="50" height="50" relative="1" as="geometry">
            <mxPoint x="240" y="280" as="sourcePoint" />
            <mxPoint x="530" y="150" as="targetPoint" />
          </mxGeometry>
        </mxCell>
        <mxCell id="6n4t6WayjrzzWqq2-2He-10" value="Система" style="shape=umlActor;verticalLabelPosition=bottom;verticalAlign=top;html=1;outlineConnect=0;fillColor=#dae8fc;strokeColor=#6c8ebf;" parent="1" vertex="1">
          <mxGeometry x="1260" y="270" width="60" height="120" as="geometry" />
        </mxCell>
        <mxCell id="6n4t6WayjrzzWqq2-2He-13" value="" style="endArrow=classic;html=1;rounded=0;exitX=0;exitY=0.3333333333333333;exitDx=0;exitDy=0;exitPerimeter=0;entryX=1;entryY=0.5;entryDx=0;entryDy=0;" parent="1" source="6n4t6WayjrzzWqq2-2He-10" target="6n4t6WayjrzzWqq2-2He-14" edge="1">
          <mxGeometry width="50" height="50" relative="1" as="geometry">
            <mxPoint x="860" y="210" as="sourcePoint" />
            <mxPoint x="1120" y="80" as="targetPoint" />
          </mxGeometry>
        </mxCell>
        <mxCell id="6n4t6WayjrzzWqq2-2He-14" value="Соединение" style="ellipse;whiteSpace=wrap;html=1;fillColor=#dae8fc;strokeColor=#6c8ebf;" parent="1" vertex="1">
          <mxGeometry x="865" y="-10" width="150" height="80" as="geometry" />
        </mxCell>
        <mxCell id="6n4t6WayjrzzWqq2-2He-17" value="" style="endArrow=classic;html=1;rounded=0;exitX=0;exitY=0.3333333333333333;exitDx=0;exitDy=0;exitPerimeter=0;" parent="1" source="6n4t6WayjrzzWqq2-2He-10" target="6n4t6WayjrzzWqq2-2He-18" edge="1">
          <mxGeometry width="50" height="50" relative="1" as="geometry">
            <mxPoint x="860" y="210" as="sourcePoint" />
            <mxPoint x="1030" y="310" as="targetPoint" />
          </mxGeometry>
        </mxCell>
        <mxCell id="6n4t6WayjrzzWqq2-2He-18" value="Регистрация нового пользователя" style="ellipse;whiteSpace=wrap;html=1;fillColor=#dae8fc;strokeColor=#6c8ebf;" parent="1" vertex="1">
          <mxGeometry x="865" y="190" width="150" height="80" as="geometry" />
        </mxCell>
        <mxCell id="6n4t6WayjrzzWqq2-2He-19" value="" style="endArrow=classic;html=1;rounded=0;exitX=0;exitY=0.3333333333333333;exitDx=0;exitDy=0;exitPerimeter=0;entryX=1;entryY=0.5;entryDx=0;entryDy=0;" parent="1" source="6n4t6WayjrzzWqq2-2He-10" target="6n4t6WayjrzzWqq2-2He-20" edge="1">
          <mxGeometry width="50" height="50" relative="1" as="geometry">
            <mxPoint x="860" y="210" as="sourcePoint" />
            <mxPoint x="1030" y="430" as="targetPoint" />
          </mxGeometry>
        </mxCell>
        <mxCell id="6n4t6WayjrzzWqq2-2He-20" value="Установка интернет-соединения" style="ellipse;whiteSpace=wrap;html=1;fillColor=#dae8fc;strokeColor=#6c8ebf;" parent="1" vertex="1">
          <mxGeometry x="870" y="335" width="140" height="85" as="geometry" />
        </mxCell>
        <mxCell id="6n4t6WayjrzzWqq2-2He-21" value="" style="shape=cylinder3;whiteSpace=wrap;html=1;boundedLbl=1;backgroundOutline=1;size=15;fillColor=#dae8fc;strokeColor=#6c8ebf;" parent="1" vertex="1">
          <mxGeometry x="1260" y="110" width="60" height="80" as="geometry" />
        </mxCell>
        <mxCell id="6n4t6WayjrzzWqq2-2He-22" value="База данных" style="text;html=1;strokeColor=none;fillColor=none;align=center;verticalAlign=middle;whiteSpace=wrap;rounded=0;" parent="1" vertex="1">
          <mxGeometry x="1260" y="140" width="60" height="30" as="geometry" />
        </mxCell>
        <mxCell id="6n4t6WayjrzzWqq2-2He-23" value="" style="endArrow=classic;html=1;rounded=0;exitX=0.5;exitY=0;exitDx=0;exitDy=0;exitPerimeter=0;entryX=0.5;entryY=1;entryDx=0;entryDy=0;entryPerimeter=0;" parent="1" source="6n4t6WayjrzzWqq2-2He-10" target="6n4t6WayjrzzWqq2-2He-21" edge="1">
          <mxGeometry width="50" height="50" relative="1" as="geometry">
            <mxPoint x="850" y="270" as="sourcePoint" />
            <mxPoint x="900" y="220" as="targetPoint" />
          </mxGeometry>
        </mxCell>
        <mxCell id="ltmZThyM_bQzvRQgNd3H-1" value="Синхронизация контактов" style="ellipse;whiteSpace=wrap;html=1;fillColor=#d5e8d4;strokeColor=#82b366;" vertex="1" parent="1">
          <mxGeometry x="460" y="550" width="120" height="80" as="geometry" />
        </mxCell>
        <mxCell id="ltmZThyM_bQzvRQgNd3H-2" value="" style="endArrow=classic;html=1;rounded=0;entryX=0;entryY=0.5;entryDx=0;entryDy=0;" edge="1" parent="1" target="ltmZThyM_bQzvRQgNd3H-1">
          <mxGeometry width="50" height="50" relative="1" as="geometry">
            <mxPoint x="240" y="280" as="sourcePoint" />
            <mxPoint x="475" y="470" as="targetPoint" />
          </mxGeometry>
        </mxCell>
        <mxCell id="ltmZThyM_bQzvRQgNd3H-3" value="Предоставление личной информации" style="ellipse;whiteSpace=wrap;html=1;fillColor=#dae8fc;strokeColor=#6c8ebf;" vertex="1" parent="1">
          <mxGeometry x="865" y="550" width="150" height="80" as="geometry" />
        </mxCell>
        <mxCell id="ltmZThyM_bQzvRQgNd3H-4" value="" style="endArrow=classic;html=1;rounded=0;entryX=1;entryY=0.5;entryDx=0;entryDy=0;" edge="1" parent="1" target="ltmZThyM_bQzvRQgNd3H-3">
          <mxGeometry width="50" height="50" relative="1" as="geometry">
            <mxPoint x="1260" y="310" as="sourcePoint" />
            <mxPoint x="999" y="279" as="targetPoint" />
          </mxGeometry>
        </mxCell>
        <mxCell id="ltmZThyM_bQzvRQgNd3H-7" value="Uses" style="text;html=1;align=center;verticalAlign=middle;resizable=0;points=[];autosize=1;strokeColor=none;fillColor=none;" vertex="1" parent="1">
          <mxGeometry x="700" width="50" height="30" as="geometry" />
        </mxCell>
        <mxCell id="ltmZThyM_bQzvRQgNd3H-8" value="" style="endArrow=classic;html=1;rounded=0;exitX=1;exitY=0.5;exitDx=0;exitDy=0;entryX=0;entryY=0.5;entryDx=0;entryDy=0;dashed=1;" edge="1" parent="1" source="6n4t6WayjrzzWqq2-2He-3" target="6n4t6WayjrzzWqq2-2He-14">
          <mxGeometry width="50" height="50" relative="1" as="geometry">
            <mxPoint x="670" y="360" as="sourcePoint" />
            <mxPoint x="720" y="310" as="targetPoint" />
          </mxGeometry>
        </mxCell>
        <mxCell id="ltmZThyM_bQzvRQgNd3H-9" value="" style="endArrow=classic;html=1;rounded=0;exitX=1;exitY=0.5;exitDx=0;exitDy=0;dashed=1;" edge="1" parent="1" source="6n4t6WayjrzzWqq2-2He-5">
          <mxGeometry width="50" height="50" relative="1" as="geometry">
            <mxPoint x="590" y="30" as="sourcePoint" />
            <mxPoint x="860" y="30" as="targetPoint" />
          </mxGeometry>
        </mxCell>
        <mxCell id="ltmZThyM_bQzvRQgNd3H-10" value="Uses" style="text;html=1;align=center;verticalAlign=middle;resizable=0;points=[];autosize=1;strokeColor=none;fillColor=none;" vertex="1" parent="1">
          <mxGeometry x="660" y="90" width="50" height="30" as="geometry" />
        </mxCell>
        <mxCell id="ltmZThyM_bQzvRQgNd3H-11" value="" style="endArrow=classic;html=1;rounded=0;exitX=1;exitY=0.5;exitDx=0;exitDy=0;dashed=1;entryX=0;entryY=0.5;entryDx=0;entryDy=0;" edge="1" parent="1" target="6n4t6WayjrzzWqq2-2He-18">
          <mxGeometry width="50" height="50" relative="1" as="geometry">
            <mxPoint x="590" y="330" as="sourcePoint" />
            <mxPoint x="860" y="200" as="targetPoint" />
          </mxGeometry>
        </mxCell>
        <mxCell id="ltmZThyM_bQzvRQgNd3H-12" value="" style="endArrow=classic;html=1;rounded=0;exitX=1;exitY=0.5;exitDx=0;exitDy=0;dashed=1;entryX=0;entryY=0.5;entryDx=0;entryDy=0;" edge="1" parent="1" target="6n4t6WayjrzzWqq2-2He-20">
          <mxGeometry width="50" height="50" relative="1" as="geometry">
            <mxPoint x="575" y="460" as="sourcePoint" />
            <mxPoint x="845" y="330" as="targetPoint" />
          </mxGeometry>
        </mxCell>
        <mxCell id="ltmZThyM_bQzvRQgNd3H-13" value="" style="endArrow=classic;html=1;rounded=0;dashed=1;entryX=1;entryY=0.5;entryDx=0;entryDy=0;" edge="1" parent="1" target="ltmZThyM_bQzvRQgNd3H-1">
          <mxGeometry width="50" height="50" relative="1" as="geometry">
            <mxPoint x="870" y="380" as="sourcePoint" />
            <mxPoint x="780" y="500" as="targetPoint" />
          </mxGeometry>
        </mxCell>
        <mxCell id="ltmZThyM_bQzvRQgNd3H-14" value="" style="endArrow=classic;html=1;rounded=0;exitX=1;exitY=0.5;exitDx=0;exitDy=0;dashed=1;entryX=0.033;entryY=0.5;entryDx=0;entryDy=0;entryPerimeter=0;" edge="1" parent="1" target="ltmZThyM_bQzvRQgNd3H-3">
          <mxGeometry width="50" height="50" relative="1" as="geometry">
            <mxPoint x="580" y="590" as="sourcePoint" />
            <mxPoint x="860" y="590" as="targetPoint" />
          </mxGeometry>
        </mxCell>
        <mxCell id="ltmZThyM_bQzvRQgNd3H-15" value="Uses" style="text;html=1;align=center;verticalAlign=middle;resizable=0;points=[];autosize=1;strokeColor=none;fillColor=none;" vertex="1" parent="1">
          <mxGeometry x="680" y="255" width="50" height="30" as="geometry" />
        </mxCell>
        <mxCell id="ltmZThyM_bQzvRQgNd3H-16" value="Uses" style="text;html=1;align=center;verticalAlign=middle;resizable=0;points=[];autosize=1;strokeColor=none;fillColor=none;" vertex="1" parent="1">
          <mxGeometry x="670" y="390" width="50" height="30" as="geometry" />
        </mxCell>
        <mxCell id="ltmZThyM_bQzvRQgNd3H-17" value="Uses" style="text;html=1;align=center;verticalAlign=middle;resizable=0;points=[];autosize=1;strokeColor=none;fillColor=none;" vertex="1" parent="1">
          <mxGeometry x="750" y="560" width="50" height="30" as="geometry" />
        </mxCell>
        <mxCell id="ltmZThyM_bQzvRQgNd3H-18" value="Precedes" style="text;html=1;align=center;verticalAlign=middle;resizable=0;points=[];autosize=1;strokeColor=none;fillColor=none;" vertex="1" parent="1">
          <mxGeometry x="670" y="470" width="70" height="30" as="geometry" />
        </mxCell>
      </root>
    </mxGraphModel>
  </diagram>
</mxfile>
